<!DOCTYPE svg PUBLIC "-//W3C//DTD SVG 20010904//EN" "http://www.w3.org/TR/2001/REC-SVG-20010904/DTD/svg10.dtd">
<svg version="1.0" xmlns="http://www.w3.org/2000/svg" width="1600px" height="1600px" viewBox="0 0 16000 16000" preserveAspectRatio="xMidYMid meet">
<g id="layer101" fill="#129680" stroke="none">
 <path d="M7600 15378 c-270 -7 -306 -10 -321 -25 -30 -31 -40 -194 -46 -765 l-6 -548 -61 0 c-74 0 -106 -8 -106 -25 0 -25 -67 -38 -230 -44 -148 -6 -171 -9 -220 -32 -31 -14 -87 -32 -125 -38 -171 -31 -237 -49 -265 -76 -20 -19 -41 -27 -81 -31 -83 -8 -141 -25 -176 -52 -23 -17 -50 -25 -95 -29 -52 -5 -68 -10 -89 -33 -18 -20 -44 -32 -84 -40 -40 -8 -75 -25 -111 -51 -39 -30 -66 -42 -113 -50 -51 -8 -68 -16 -96 -44 -29 -31 -39 -35 -83 -35 -64 0 -81 -7 -92 -36 -7 -16 -20 -25 -47 -29 -62 -11 -93 -28 -93 -51 0 -31 -28 -50 -90 -63 -65 -14 -90 -29 -153 -93 -26 -26 -57 -48 -67 -48 -48 0 -179 -71 -180 -97 0 -7 -4 -13 -9 -13 -5 0 -12 -13 -16 -28 -7 -33 -27 -47 -83 -57 -23 -4 -48 -12 -55 -18 -6 -7 -25 -19 -41 -27 -46 -24 -125 -107 -142 -149 -14 -35 -21 -41 -67 -52 -49 -11 -115 -54 -201 -129 -43 -37 -445 -438 -486 -485 -20 -22 -51 -60 -70 -85 -18 -25 -38 -49 -44 -55 -16 -14 -44 -75 -51 -108 -4 -18 -17 -34 -38 -45 -30 -16 -152 -131 -189 -180 -10 -12 -18 -29 -18 -38 0 -18 -49 -85 -92 -126 -15 -15 -28 -32 -28 -37 0 -6 -3 -11 -8 -11 -10 0 -37 -54 -59 -119 -13 -40 -34 -71 -75 -113 -32 -32 -60 -71 -64 -86 -11 -53 -32 -97 -49 -107 -35 -19 -53 -43 -60 -76 -10 -55 -26 -88 -44 -94 -21 -6 -41 -59 -41 -107 0 -46 -8 -68 -26 -68 -17 0 -32 -35 -45 -108 -10 -50 -33 -92 -52 -92 -18 0 -46 -46 -47 -75 0 -28 -14 -61 -60 -145 -11 -21 -19 -55 -20 -86 0 -39 -6 -59 -29 -90 -21 -28 -31 -56 -36 -99 -11 -95 -24 -136 -56 -167 -16 -16 -29 -37 -29 -46 0 -9 -6 -37 -14 -62 -8 -25 -20 -72 -26 -105 -6 -33 -17 -91 -25 -130 -13 -67 -26 -140 -59 -345 -28 -174 -45 -284 -51 -332 l-6 -48 -427 -1 c-506 -1 -852 -12 -905 -30 -21 -7 -42 -20 -46 -28 -22 -43 -36 -293 -36 -636 0 -370 14 -599 40 -641 26 -42 105 -47 762 -51 l612 -4 6 -47 c3 -26 12 -90 21 -142 8 -52 22 -138 30 -190 17 -105 37 -221 60 -350 43 -238 62 -306 96 -340 29 -30 43 -73 53 -170 4 -36 10 -67 14 -70 29 -21 51 -67 51 -108 0 -51 19 -122 32 -122 14 0 48 -82 48 -117 0 -22 9 -40 28 -58 15 -14 35 -33 44 -41 9 -9 20 -30 23 -48 15 -82 29 -116 51 -131 19 -12 24 -24 24 -61 0 -53 23 -114 43 -114 16 0 32 -34 42 -90 6 -32 46 -80 66 -80 11 0 33 -53 42 -99 5 -22 27 -53 66 -93 38 -37 62 -71 66 -91 12 -53 58 -138 97 -180 21 -21 38 -41 38 -43 0 -2 8 -13 18 -23 35 -40 42 -51 42 -70 0 -23 165 -201 187 -201 23 0 63 -47 63 -74 0 -27 37 -96 51 -96 5 0 9 -7 9 -15 0 -8 4 -15 8 -15 5 0 23 -19 40 -42 17 -24 51 -65 76 -91 25 -27 46 -50 46 -52 0 -6 306 -308 375 -370 115 -103 203 -165 236 -165 31 0 79 -38 79 -63 0 -7 27 -40 61 -73 86 -84 86 -84 98 -84 6 0 11 -4 11 -10 0 -5 16 -14 36 -19 39 -11 76 -37 165 -116 43 -39 75 -58 119 -71 46 -14 73 -31 120 -74 51 -49 68 -59 118 -69 71 -14 100 -33 104 -69 2 -23 9 -28 43 -36 65 -14 95 -27 95 -43 0 -20 61 -43 114 -43 37 0 49 -5 61 -24 16 -24 60 -39 140 -50 27 -4 46 -14 58 -31 20 -27 174 -106 254 -130 26 -8 64 -15 83 -15 25 0 44 -9 67 -30 26 -24 42 -30 100 -36 86 -7 128 -20 157 -47 39 -36 212 -80 521 -132 123 -20 237 -41 330 -60 39 -8 86 -17 106 -20 l36 -5 6 -568 c4 -314 11 -600 17 -642 17 -119 8 -115 306 -123 137 -4 450 -7 697 -7 l447 0 0 669 0 670 48 6 c74 9 391 60 482 77 30 6 80 14 110 18 30 4 75 13 100 18 25 6 74 16 110 22 122 22 240 64 240 85 0 14 65 35 111 35 58 1 109 17 136 44 15 16 37 26 54 26 80 0 290 88 341 142 21 23 41 31 85 38 74 10 113 26 113 44 0 18 22 26 68 26 48 0 101 20 107 41 6 19 41 34 97 44 30 5 38 11 43 35 9 39 36 57 107 71 50 10 66 19 116 68 48 46 72 61 132 80 40 13 82 33 92 43 10 10 21 18 24 18 13 0 43 46 44 67 0 24 43 53 80 53 60 0 198 109 239 188 23 45 46 62 85 62 13 0 31 7 40 15 8 8 18 15 22 15 9 0 91 66 121 97 12 13 25 23 29 23 7 0 397 390 454 455 20 22 54 63 75 90 22 28 43 51 48 53 4 2 7 10 7 18 0 8 4 14 10 14 5 0 17 27 26 60 15 54 21 60 55 74 43 17 125 96 149 142 8 16 20 35 27 41 6 7 14 32 18 55 10 56 24 76 57 83 15 4 28 11 28 16 0 5 6 9 13 9 26 1 97 132 97 180 0 10 24 43 53 72 59 58 79 91 96 154 8 29 21 49 45 64 33 23 48 52 61 118 4 22 15 36 30 42 28 11 35 29 35 91 0 42 5 54 34 85 33 35 46 70 46 124 0 19 13 40 44 71 34 32 46 53 51 83 11 69 26 110 50 131 17 16 23 34 27 90 6 74 23 125 43 125 14 0 31 59 41 140 4 35 21 82 49 135 39 72 44 91 54 189 7 72 16 115 27 127 30 33 44 108 44 239 0 133 19 230 44 230 17 0 26 53 26 163 l0 87 675 0 675 0 0 695 0 695 -674 0 -674 0 -4 116 c-3 98 -6 118 -21 129 -31 23 -47 99 -47 229 -1 134 -11 198 -40 237 -13 18 -22 58 -30 130 -10 91 -36 180 -59 199 -15 12 -41 89 -46 135 -11 87 -16 103 -40 129 -28 31 -45 84 -45 144 0 49 -14 82 -34 82 -13 0 -23 32 -42 130 -7 39 -30 70 -51 70 -7 0 -13 5 -13 11 0 6 -7 17 -15 25 -8 9 -15 28 -15 43 0 55 -13 90 -46 125 -30 31 -34 43 -34 89 0 58 -5 69 -37 86 -15 8 -25 24 -29 51 -8 46 -37 98 -62 107 -26 10 -40 33 -48 78 -8 49 -25 75 -91 143 -29 29 -53 60 -53 69 0 23 -34 113 -42 113 -5 0 -8 5 -8 11 0 19 -67 79 -89 79 -23 0 -46 37 -56 93 -4 20 -11 40 -16 43 -5 2 -16 20 -25 39 -22 46 -105 128 -153 150 -33 15 -41 24 -50 62 -21 82 -122 204 -386 468 -261 261 -387 365 -469 386 -37 9 -46 17 -61 50 -22 48 -104 131 -150 153 -19 9 -37 20 -39 25 -3 5 -23 12 -43 16 -56 10 -93 33 -93 56 0 22 -60 89 -79 89 -6 0 -11 3 -11 8 0 8 -90 42 -112 42 -9 0 -42 25 -74 56 -64 60 -99 79 -168 89 -41 6 -47 11 -62 45 -19 42 -39 55 -96 65 -25 4 -42 14 -49 28 -17 32 -28 37 -87 37 -45 0 -57 4 -85 31 -37 36 -66 49 -109 49 -32 0 -77 22 -116 57 -24 22 -43 29 -134 53 -27 7 -48 18 -48 26 0 20 -33 34 -82 34 -65 1 -113 15 -162 47 -30 20 -64 32 -99 36 -55 7 -89 18 -187 64 -34 16 -94 31 -159 40 -67 9 -113 21 -130 33 -39 29 -103 39 -237 40 -130 0 -206 16 -229 47 -11 15 -31 18 -129 21 l-116 4 0 674 0 674 -397 -2 c-219 0 -535 -5 -703 -10z m1168 -2857 c34 -7 62 -16 62 -20 0 -7 95 -23 225 -37 57 -6 78 -14 170 -68 27 -16 63 -25 110 -29 74 -6 125 -23 125 -41 0 -15 41 -31 130 -51 134 -30 194 -47 245 -67 53 -22 135 -76 135 -90 0 -4 5 -8 10 -8 6 0 21 -9 33 -21 26 -24 102 -59 129 -59 18 0 75 -26 88 -40 25 -27 100 -80 113 -80 9 0 19 -4 22 -10 3 -5 21 -10 38 -10 42 0 52 -8 70 -52 17 -40 37 -53 100 -63 31 -5 40 -12 49 -36 6 -19 17 -29 30 -29 25 0 101 -52 150 -102 21 -21 40 -38 44 -38 3 0 17 -13 32 -28 32 -34 84 -70 134 -96 21 -10 49 -31 64 -47 76 -81 124 -143 124 -161 0 -18 20 -38 38 -38 18 0 80 -48 161 -124 16 -15 37 -43 47 -64 26 -50 62 -102 96 -134 15 -15 28 -29 28 -32 0 -4 17 -23 38 -44 50 -49 102 -125 102 -150 0 -13 10 -24 29 -30 24 -9 31 -18 36 -49 11 -64 23 -84 65 -100 41 -16 43 -19 55 -96 4 -28 13 -40 30 -47 27 -10 45 -38 45 -72 0 -15 10 -29 29 -39 25 -14 29 -24 33 -76 6 -62 30 -113 53 -113 15 0 25 -22 25 -55 0 -15 15 -36 44 -61 47 -40 59 -70 71 -169 4 -38 12 -56 35 -77 27 -24 30 -33 30 -84 0 -62 17 -124 35 -124 17 0 36 -56 44 -132 5 -47 15 -86 29 -108 49 -79 60 -108 66 -165 14 -131 30 -225 37 -225 4 0 13 -33 21 -72 19 -105 19 -1401 0 -1503 -7 -38 -17 -74 -21 -80 -8 -10 -26 -116 -37 -220 -6 -57 -16 -83 -66 -165 -12 -21 -24 -64 -29 -110 -9 -83 -25 -130 -43 -130 -18 0 -36 -61 -36 -124 0 -51 -3 -60 -30 -84 -23 -21 -31 -39 -35 -77 -12 -101 -25 -133 -71 -170 -31 -25 -44 -44 -44 -61 0 -32 -17 -64 -33 -64 -21 0 -38 -39 -44 -104 -5 -55 -9 -64 -34 -79 -19 -10 -29 -24 -29 -39 0 -28 -26 -68 -44 -68 -16 0 -36 -43 -36 -78 0 -37 -13 -54 -51 -66 -36 -12 -55 -41 -64 -98 -4 -27 -13 -41 -32 -50 -14 -8 -30 -28 -37 -48 -7 -19 -21 -46 -31 -59 -33 -40 -117 -135 -139 -156 -33 -32 -76 -92 -76 -107 0 -19 -89 -128 -104 -128 -2 0 -19 -13 -37 -30 -18 -16 -53 -39 -76 -50 -24 -11 -43 -27 -43 -36 0 -18 -80 -127 -124 -167 -17 -16 -49 -38 -71 -49 -51 -26 -93 -58 -158 -121 -71 -67 -167 -137 -189 -137 -11 0 -28 -15 -39 -35 -18 -31 -26 -35 -60 -35 -42 0 -89 -34 -89 -64 0 -25 -41 -56 -74 -56 -33 0 -136 -54 -136 -70 0 -6 -7 -10 -15 -10 -8 0 -15 -4 -15 -9 0 -15 -83 -51 -117 -51 -30 0 -104 -47 -196 -126 -23 -19 -67 -41 -105 -52 -140 -43 -175 -52 -196 -52 -39 0 -146 -41 -156 -60 -10 -18 -55 -31 -165 -45 -29 -4 -67 -19 -91 -35 -61 -40 -119 -58 -214 -64 -49 -3 -110 -13 -140 -25 -103 -37 -259 -46 -845 -46 -583 0 -734 8 -850 46 -33 11 -109 24 -170 28 -111 8 -133 15 -195 62 -19 15 -55 30 -80 34 -110 16 -150 28 -165 52 -13 19 -24 23 -68 23 -64 0 -156 26 -164 45 -6 16 -52 31 -124 40 -37 5 -60 18 -125 71 -92 76 -147 104 -203 104 -33 0 -47 7 -75 35 -31 30 -169 105 -194 105 -9 0 -51 41 -91 88 -12 15 -35 26 -59 29 -32 4 -42 11 -53 35 -10 21 -26 35 -54 44 -22 7 -41 18 -43 24 -2 5 -8 10 -13 10 -5 0 -35 24 -66 54 -94 88 -155 136 -200 158 -66 31 -165 133 -199 206 -12 25 -31 44 -56 56 -73 34 -175 133 -206 199 -22 45 -70 106 -158 200 -30 31 -54 60 -54 63 0 3 -7 12 -15 21 -9 8 -19 29 -22 45 -4 20 -17 37 -39 50 -29 17 -34 26 -34 57 0 41 -34 91 -61 91 -21 0 -48 39 -98 142 -26 54 -53 95 -72 108 -21 16 -29 30 -29 52 0 56 -73 203 -127 254 -33 32 -43 49 -48 85 -10 73 -26 127 -41 133 -19 7 -44 100 -44 163 0 44 -4 55 -23 68 -24 15 -38 60 -52 166 -4 36 -14 53 -45 83 -43 41 -46 52 -54 191 -5 93 -23 185 -36 185 -4 0 -14 44 -21 98 -20 139 -20 1348 0 1475 7 48 16 87 20 87 13 0 41 135 41 194 0 61 20 120 61 181 15 23 30 61 34 90 13 100 29 157 44 163 25 9 31 23 31 78 0 54 25 142 46 159 14 12 30 63 39 127 5 40 13 53 49 83 33 27 47 47 55 80 7 27 17 45 26 45 26 0 45 42 45 98 0 49 3 57 35 86 20 19 35 42 35 55 0 22 41 71 60 71 5 0 10 16 10 35 0 51 19 83 56 95 43 15 64 45 64 91 0 32 5 40 35 58 21 12 35 28 35 39 0 21 61 103 137 186 62 67 95 111 121 161 11 22 33 54 49 71 40 44 149 124 167 124 9 0 25 19 36 43 11 23 34 58 50 76 17 18 30 35 30 37 0 15 109 104 128 104 15 0 75 43 107 76 21 22 116 106 156 139 13 10 40 24 59 31 20 7 40 23 48 37 9 19 23 28 50 32 57 9 86 28 98 64 12 38 29 51 66 51 35 0 78 20 78 36 0 18 40 44 68 44 15 0 29 10 40 30 13 23 24 30 48 30 52 0 127 31 179 75 117 97 166 118 413 172 60 13 93 26 115 46 36 31 83 47 147 47 43 0 57 6 166 66 22 12 66 25 99 28 104 11 210 29 220 37 10 7 102 25 175 33 19 2 332 3 695 2 495 -2 676 -5 723 -15z"/>
 <path d="M5916 11444 c-11 -29 -6 -127 10 -183 43 -154 75 -262 89 -301 7 -19 18 -51 24 -70 7 -19 17 -50 21 -69 5 -18 13 -38 19 -44 6 -6 11 -21 11 -33 0 -13 5 -26 10 -29 6 -3 10 -16 10 -29 0 -12 4 -26 10 -32 5 -5 21 -41 34 -79 14 -39 35 -95 46 -125 12 -30 25 -68 30 -85 5 -16 18 -55 30 -85 12 -30 25 -68 30 -85 4 -16 29 -91 54 -165 26 -74 51 -148 56 -165 11 -40 30 -93 46 -133 8 -18 14 -39 14 -47 0 -7 6 -26 14 -42 8 -15 41 -111 75 -213 33 -102 88 -264 121 -360 34 -96 65 -188 70 -205 5 -16 25 -75 45 -130 20 -55 40 -113 45 -130 4 -16 18 -55 30 -85 12 -30 24 -65 27 -76 3 -12 24 -80 48 -150 l43 -129 -137 -6 c-75 -4 -377 -7 -671 -8 -601 -2 -726 -8 -785 -37 -68 -33 -61 -72 45 -254 31 -52 62 -111 70 -130 7 -19 23 -51 35 -70 12 -19 48 -87 79 -150 32 -63 112 -221 178 -350 66 -129 194 -381 285 -560 90 -179 175 -345 188 -370 13 -25 52 -103 88 -175 35 -71 84 -170 109 -220 49 -98 130 -259 200 -400 25 -49 70 -139 100 -200 98 -196 149 -299 166 -335 10 -19 22 -40 27 -46 6 -7 26 -46 45 -88 l35 -76 1870 4 c1029 3 1912 9 1963 13 112 11 132 24 112 74 -16 37 -173 199 -310 319 -52 46 -96 87 -98 92 -2 4 -8 8 -12 8 -5 0 -22 12 -38 28 -15 15 -56 50 -90 77 -34 28 -62 53 -62 58 0 4 -4 7 -10 7 -5 0 -22 12 -38 27 -16 16 -50 46 -77 68 -26 22 -58 49 -70 60 -13 11 -46 40 -76 65 -29 25 -65 57 -81 72 -16 16 -31 28 -33 28 -5 0 -34 24 -79 65 -12 11 -51 45 -85 75 -35 30 -69 61 -77 68 -7 6 -15 12 -18 12 -2 0 -17 12 -33 28 -52 49 -135 122 -140 122 -2 0 -14 10 -26 23 -12 12 -49 44 -82 71 -33 28 -72 62 -87 78 -15 15 -32 28 -37 28 -6 0 -11 4 -11 8 0 5 -28 31 -62 59 -35 28 -75 62 -89 76 -15 13 -73 64 -130 113 -57 48 -115 99 -129 112 -14 14 -59 52 -100 85 -41 34 -86 72 -100 85 -14 14 -59 52 -100 85 -41 34 -91 76 -110 93 -19 18 -48 44 -65 58 l-30 25 946 1 c809 0 959 2 1035 15 49 9 99 23 111 31 42 27 25 75 -55 162 -21 23 -41 42 -44 42 -4 0 -44 37 -89 83 -46 45 -153 147 -237 227 -85 80 -194 184 -243 233 -49 48 -90 87 -92 87 -2 0 -39 35 -83 78 -43 43 -144 138 -223 212 -79 74 -173 164 -210 200 -37 36 -132 126 -211 200 -176 165 -269 253 -363 345 -40 39 -146 140 -237 225 -156 146 -221 208 -393 375 -39 39 -160 154 -267 255 -107 102 -223 213 -257 247 -34 35 -65 63 -67 63 -3 0 -36 30 -73 68 -37 37 -140 135 -227 217 -88 83 -197 187 -242 233 -46 45 -85 82 -88 82 -2 0 -43 39 -92 88 -50 48 -143 137 -208 197 -66 61 -145 136 -178 167 -32 31 -100 92 -150 135 -51 42 -95 80 -98 83 -43 45 -132 67 -144 34z"/>
 </g>

</svg>