<!DOCTYPE svg PUBLIC "-//W3C//DTD SVG 20010904//EN" "http://www.w3.org/TR/2001/REC-SVG-20010904/DTD/svg10.dtd">
<svg version="1.0" xmlns="http://www.w3.org/2000/svg" width="440px" height="440px" viewBox="0 0 4400 4400" preserveAspectRatio="xMidYMid meet">
<g id="layer101" fill="#3aa0e8" stroke="none">
 <path d="M2003 4223 c-10 -3 -13 -50 -13 -184 l0 -179 -25 0 c-14 0 -25 -4 -25 -10 0 -6 -26 -10 -59 -10 -33 0 -62 -4 -65 -9 -3 -4 -28 -11 -56 -15 -27 -4 -50 -11 -50 -16 0 -6 -13 -10 -29 -10 -17 0 -33 -4 -36 -10 -3 -5 -17 -10 -31 -10 -13 0 -24 -4 -24 -10 0 -5 -9 -10 -19 -10 -11 0 -26 -7 -35 -15 -8 -8 -24 -15 -35 -15 -12 0 -21 -4 -21 -10 0 -5 -11 -10 -25 -10 -14 0 -25 -4 -25 -10 0 -5 -9 -10 -20 -10 -11 0 -20 -7 -20 -15 0 -9 -9 -15 -23 -15 -12 0 -29 -9 -37 -20 -8 -11 -21 -20 -30 -20 -19 -1 -50 -24 -50 -39 0 -6 -8 -11 -17 -11 -21 0 -73 -42 -73 -59 0 -6 -9 -11 -21 -11 -27 0 -229 -203 -229 -231 0 -10 -5 -19 -11 -19 -12 0 -59 -50 -59 -62 0 -4 -11 -19 -25 -34 -14 -15 -25 -34 -25 -43 0 -9 -9 -23 -20 -31 -11 -8 -20 -23 -20 -33 0 -9 -7 -20 -15 -23 -8 -4 -15 -15 -15 -25 0 -10 -4 -19 -10 -19 -5 0 -10 -11 -10 -25 0 -14 -4 -25 -10 -25 -5 0 -10 -11 -10 -24 0 -13 -7 -26 -15 -30 -8 -3 -15 -14 -15 -25 0 -11 -4 -23 -10 -26 -5 -3 -10 -17 -10 -30 0 -13 -4 -27 -10 -30 -5 -3 -10 -19 -10 -35 0 -15 -4 -30 -10 -32 -13 -4 -27 -67 -56 -260 l-6 -38 -182 0 c-128 0 -186 -4 -194 -12 -17 -17 -17 -339 0 -356 8 -8 66 -12 194 -12 l182 0 6 -37 c29 -194 43 -257 56 -261 6 -2 10 -17 10 -32 0 -16 5 -32 10 -35 6 -3 10 -17 10 -30 0 -13 5 -27 10 -30 6 -3 10 -15 10 -26 0 -11 7 -22 15 -25 8 -4 15 -17 15 -30 0 -13 5 -24 10 -24 6 0 10 -11 10 -25 0 -14 5 -25 10 -25 6 0 10 -9 10 -19 0 -10 7 -21 15 -25 8 -3 15 -14 15 -23 0 -10 9 -25 20 -33 11 -8 20 -22 20 -31 0 -9 11 -28 25 -43 14 -15 25 -30 25 -34 0 -12 47 -62 59 -62 6 0 11 -9 11 -19 0 -28 202 -231 229 -231 12 0 21 -5 21 -11 0 -13 50 -59 65 -59 6 0 21 -12 34 -25 13 -14 31 -25 40 -25 9 0 23 -9 31 -20 8 -11 25 -20 37 -20 14 0 23 -6 23 -15 0 -8 9 -15 20 -15 11 0 20 -4 20 -10 0 -5 11 -10 25 -10 14 0 25 -4 25 -10 0 -5 11 -10 25 -10 14 0 25 -4 25 -8 0 -10 71 -42 93 -42 9 0 19 -4 22 -10 3 -5 19 -10 36 -10 16 0 29 -4 29 -9 0 -9 69 -27 160 -41 30 -5 70 -12 88 -16 l32 -6 0 -178 c0 -153 2 -179 16 -184 9 -3 99 -6 200 -6 l184 0 0 184 0 184 38 6 c186 28 262 45 262 57 0 5 13 9 29 9 17 0 33 4 36 10 3 5 13 10 22 10 22 0 93 32 93 42 0 4 11 8 25 8 14 0 25 5 25 10 0 6 11 10 25 10 14 0 25 5 25 10 0 6 9 10 20 10 11 0 20 7 20 15 0 9 9 15 23 15 12 0 29 9 37 20 8 11 21 20 30 20 19 1 50 24 50 39 0 6 8 11 18 11 20 0 72 42 72 59 0 6 9 11 21 11 27 0 229 203 229 231 0 10 5 19 11 19 17 0 59 52 59 73 0 9 5 17 11 17 15 0 38 31 39 50 0 9 9 22 20 30 11 8 20 23 20 33 0 9 7 20 15 23 8 4 15 15 15 25 0 10 5 19 10 19 6 0 10 11 10 25 0 14 5 25 10 25 6 0 10 11 10 24 0 13 7 26 15 30 8 3 15 17 15 31 0 14 5 25 10 25 6 0 10 14 10 30 0 17 5 30 10 30 6 0 10 12 10 28 0 15 7 36 15 46 8 11 15 34 15 52 0 18 4 36 10 39 6 3 10 33 10 66 0 33 4 59 10 59 6 0 10 16 10 35 l0 35 185 0 185 0 0 190 0 190 -185 0 -185 0 0 35 c0 19 -4 35 -10 35 -6 0 -10 26 -10 59 0 33 -4 63 -10 66 -5 3 -10 21 -10 39 0 18 -7 41 -15 52 -8 10 -15 31 -15 47 0 15 -4 27 -10 27 -5 0 -10 14 -10 30 0 17 -4 30 -10 30 -5 0 -10 11 -10 25 0 14 -7 28 -15 31 -8 4 -15 17 -15 30 0 13 -4 24 -10 24 -5 0 -10 11 -10 25 0 14 -4 25 -10 25 -5 0 -10 9 -10 19 0 10 -7 21 -15 25 -8 3 -15 14 -15 23 0 10 -9 25 -20 33 -11 8 -20 21 -20 30 -1 19 -24 50 -39 50 -6 0 -11 8 -11 18 0 20 -42 72 -59 72 -6 0 -11 9 -11 20 0 12 -42 62 -105 125 -63 63 -113 105 -125 105 -11 0 -20 5 -20 11 0 17 -52 59 -72 59 -10 0 -18 5 -18 11 0 15 -31 38 -50 39 -9 0 -22 9 -30 20 -8 11 -25 20 -37 20 -14 0 -23 6 -23 15 0 8 -9 15 -20 15 -11 0 -20 5 -20 10 0 6 -11 10 -25 10 -14 0 -25 5 -25 10 0 6 -9 10 -21 10 -11 0 -27 7 -35 15 -9 8 -24 15 -35 15 -10 0 -19 5 -19 10 0 6 -13 10 -29 10 -17 0 -33 5 -36 10 -3 6 -14 10 -24 10 -10 0 -32 7 -47 15 -16 8 -41 15 -56 15 -15 0 -30 5 -33 10 -3 6 -33 10 -66 10 -33 0 -59 4 -59 10 0 6 -16 10 -35 10 l-35 0 0 185 0 185 -187 -1 c-104 0 -194 -3 -200 -6z m422 -783 c3 -5 24 -10 46 -10 23 0 47 -7 55 -15 9 -8 29 -15 45 -15 16 0 29 -4 29 -9 0 -5 12 -11 28 -14 82 -17 87 -19 127 -54 7 -7 21 -13 30 -13 9 0 25 -9 37 -20 12 -11 30 -20 40 -20 10 0 18 -7 18 -15 0 -8 9 -15 20 -15 11 0 20 -4 20 -10 0 -5 5 -10 10 -10 6 0 22 -10 35 -22 36 -34 53 -48 60 -48 10 0 55 -49 55 -60 0 -5 5 -10 10 -10 11 0 60 -45 60 -55 0 -7 14 -24 48 -60 12 -13 22 -29 22 -35 0 -5 5 -10 10 -10 6 0 10 -9 10 -20 0 -11 7 -20 15 -20 8 0 15 -9 15 -20 0 -11 5 -20 10 -20 6 0 10 -7 10 -15 0 -8 5 -15 10 -15 6 0 10 -11 10 -25 0 -14 5 -25 10 -25 6 0 10 -7 10 -15 0 -9 7 -18 15 -21 9 -4 15 -19 15 -35 0 -16 5 -29 10 -29 6 0 10 -13 10 -30 0 -16 5 -30 10 -30 6 0 10 -13 10 -29 0 -16 7 -36 15 -45 8 -8 15 -32 15 -55 0 -22 5 -43 10 -46 6 -4 10 -90 10 -225 0 -135 -4 -221 -10 -225 -5 -3 -10 -24 -10 -46 0 -23 -7 -47 -15 -55 -8 -9 -15 -29 -15 -45 0 -16 -4 -29 -10 -29 -5 0 -10 -13 -10 -30 0 -16 -4 -30 -10 -30 -5 0 -10 -13 -10 -29 0 -16 -6 -31 -15 -35 -8 -3 -15 -12 -15 -21 0 -8 -4 -15 -10 -15 -5 0 -10 -11 -10 -25 0 -14 -4 -25 -10 -25 -5 0 -10 -7 -10 -15 0 -8 -4 -15 -10 -15 -5 0 -10 -9 -10 -20 0 -11 -7 -20 -15 -20 -8 0 -15 -9 -15 -20 0 -11 -4 -20 -10 -20 -5 0 -10 -5 -10 -10 0 -6 -10 -22 -22 -35 -34 -36 -48 -53 -48 -60 0 -10 -49 -55 -60 -55 -5 0 -10 -5 -10 -10 0 -11 -45 -60 -55 -60 -7 0 -24 -14 -60 -48 -13 -12 -29 -22 -35 -22 -5 0 -10 -4 -10 -10 0 -5 -9 -10 -20 -10 -11 0 -20 -7 -20 -15 0 -8 -8 -15 -18 -15 -10 0 -28 -9 -40 -20 -12 -11 -28 -20 -37 -20 -15 0 -24 -6 -58 -36 -12 -10 -38 -18 -99 -31 -16 -3 -28 -9 -28 -14 0 -5 -13 -9 -29 -9 -16 0 -36 -7 -45 -15 -8 -8 -32 -15 -55 -15 -22 0 -43 -5 -46 -10 -4 -6 -90 -10 -225 -10 -135 0 -221 4 -225 10 -3 5 -26 10 -49 10 -27 0 -48 6 -56 15 -7 8 -25 15 -41 15 -16 0 -29 5 -29 10 0 6 -13 10 -29 10 -17 0 -33 5 -36 10 -3 6 -15 10 -26 10 -19 0 -28 6 -64 38 -7 6 -23 12 -34 12 -12 0 -21 4 -21 8 0 5 -16 14 -35 22 -19 7 -36 19 -39 27 -3 7 -12 13 -21 13 -8 0 -15 5 -15 10 0 6 -5 10 -10 10 -6 0 -22 10 -35 23 -36 33 -53 47 -60 47 -10 0 -55 49 -55 60 0 5 -5 10 -10 10 -11 0 -60 45 -60 55 0 7 -14 24 -47 60 -13 13 -23 29 -23 35 0 5 -4 10 -10 10 -5 0 -10 9 -10 20 0 11 -6 20 -13 20 -7 0 -19 16 -27 35 -8 19 -17 35 -22 35 -4 0 -8 6 -8 13 0 21 -30 77 -41 77 -5 0 -9 11 -9 24 0 14 -5 28 -10 31 -5 3 -10 19 -10 36 0 16 -4 29 -10 29 -5 0 -10 14 -10 30 0 18 -6 33 -15 36 -10 4 -15 21 -15 54 0 27 -5 50 -11 52 -14 5 -14 451 0 456 6 2 11 22 11 44 0 22 7 46 15 54 8 9 15 29 15 45 0 16 5 29 10 29 6 0 10 13 10 29 0 17 5 33 10 36 5 3 10 17 10 30 0 12 7 25 15 29 8 3 15 12 15 21 0 8 5 15 10 15 6 0 10 11 10 25 0 14 5 25 10 25 6 0 10 7 10 15 0 8 5 15 10 15 6 0 10 9 10 20 0 11 7 20 15 20 8 0 15 9 15 20 0 11 5 20 10 20 6 0 10 5 10 10 0 6 10 22 23 35 33 36 47 53 47 60 0 10 49 55 60 55 5 0 10 5 10 10 0 11 45 60 55 60 7 0 24 14 60 48 13 12 29 22 35 22 5 0 10 5 10 10 0 6 9 10 20 10 11 0 20 7 20 15 0 8 9 15 20 15 11 0 20 5 20 10 0 6 7 10 15 10 8 0 15 5 15 10 0 6 9 10 21 10 11 0 27 6 34 13 40 35 45 37 128 54 15 3 27 9 27 14 0 5 13 9 29 9 16 0 36 7 45 15 8 8 32 15 55 15 22 0 43 5 46 10 4 6 90 10 225 10 135 0 221 -4 225 -10z"/>
 <path d="M1624 3135 c-5 -12 37 -153 66 -220 5 -11 34 -94 64 -185 31 -91 80 -237 111 -325 30 -88 55 -161 55 -162 0 -2 -101 -3 -225 -3 -257 0 -249 3 -197 -87 15 -26 119 -231 232 -455 l205 -408 543 0 c519 0 542 1 542 18 0 12 -52 63 -132 131 -143 122 -177 151 -368 317 -69 60 -146 126 -170 146 l-45 38 288 0 c341 0 336 -2 236 92 -35 34 -109 104 -164 157 -56 53 -170 161 -254 241 -84 80 -177 168 -205 195 -29 28 -127 122 -220 210 -359 343 -349 335 -362 300z"/>
 </g>

</svg>